<?xml version="1.0" encoding="UTF-8" standalone="no"?>
<svg width="40px" height="35px" viewBox="0 0 40 35" version="1.1" xmlns="http://www.w3.org/2000/svg" xmlns:xlink="http://www.w3.org/1999/xlink">
    <!-- Generator: Sketch 43.2 (39069) - http://www.bohemiancoding.com/sketch -->
    <title>nav-toggle</title>
    <desc>Created with Sketch.</desc>
    <defs></defs>
    <g id="Page-1" stroke="none" stroke-width="1" fill="none" fill-rule="evenodd">
        <g id="nav-toggle" fill="#FFFFFF">
            <path d="M31.8600006,24.9008338 L31.8600006,26.8891671 C31.8600006,27.158422 31.7616205,27.3914275 31.5648574,27.5881906 C31.3680942,27.7849537 31.1350887,27.8833338 30.8658339,27.8833338 L8.99416669,27.8833338 C8.72491187,27.8833338 8.49190638,27.7849537 8.29514324,27.5881906 C8.0983801,27.3914275 8,27.158422 8,26.8891671 L8,24.9008338 C8,24.6315789 8.0983801,24.3985735 8.29514324,24.2018103 C8.49190638,24.0050472 8.72491187,23.9066671 8.99416669,23.9066671 L30.8658339,23.9066671 C31.1350887,23.9066671 31.3680942,24.0050472 31.5648574,24.2018103 C31.7616205,24.3985735 31.8600006,24.6315789 31.8600006,24.9008338 Z M31.8600006,16.9475002 L31.8600006,18.9358336 C31.8600006,19.2050884 31.7616205,19.4380939 31.5648574,19.6348571 C31.3680942,19.8316202 31.1350887,19.9300003 30.8658339,19.9300003 L8.99416669,19.9300003 C8.72491187,19.9300003 8.49190638,19.8316202 8.29514324,19.6348571 C8.0983801,19.4380939 8,19.2050884 8,18.9358336 L8,16.9475002 C8,16.6782454 8.0983801,16.4452399 8.29514324,16.2484768 C8.49190638,16.0517136 8.72491187,15.9533335 8.99416669,15.9533335 L30.8658339,15.9533335 C31.1350887,15.9533335 31.3680942,16.0517136 31.5648574,16.2484768 C31.7616205,16.4452399 31.8600006,16.6782454 31.8600006,16.9475002 Z M31.8600006,8.99416669 L31.8600006,10.9825001 C31.8600006,11.2517549 31.7616205,11.4847604 31.5648574,11.6815235 C31.3680942,11.8782867 31.1350887,11.9766668 30.8658339,11.9766668 L8.99416669,11.9766668 C8.72491187,11.9766668 8.49190638,11.8782867 8.29514324,11.6815235 C8.0983801,11.4847604 8,11.2517549 8,10.9825001 L8,8.99416669 C8,8.72491187 8.0983801,8.49190638 8.29514324,8.29514324 C8.49190638,8.0983801 8.72491187,8 8.99416669,8 L30.8658339,8 C31.1350887,8 31.3680942,8.0983801 31.5648574,8.29514324 C31.7616205,8.49190638 31.8600006,8.72491187 31.8600006,8.99416669 Z" id="icon"></path>
        </g>
    </g>
</svg>